<svg xmlns="http://www.w3.org/2000/svg" viewBox="0 0 85 50" class="h-20 cursor-pointer"><path d="M49.51 48.89v-.97H31.93v1.94h17.13l.44-.96Z" style="fill:#8486a6"></path><path d="m41.71 47.92-1.15 1.94h-8.62v-1.94h9.78Z" style="fill:#71738f"></path><path d="m56.22 24.55-9.26 25.3h1.6l9.3-25.3h-1.63Z" style="fill:#d2d2d9"></path><path d="m73.43 49.85 8.86-24.49-24.43-.81-9.3 25.3h24.86Z" style="fill:#ecebeb"></path><path style="fill:#f5f5f5" d="m80.64 29.91-3.05 8.44-15.02 11.5h-9.01l12.09-8.9-.09.42 1.2.29.34-1.68.02-.12 1.44-1.05.13.18.66.84L72 37.39l-.26-.31-.31-.39 9.21-6.78zM68.27 49.85l7.14-5.5-1.99 5.5h-5.15Z"></path><path d="m9.1 45.67-.13 1-.18 1.35c-2.33.22-5.64 1.18-7.44 1.72-.36.1-.65.19-.87.26-.04-.35.11-3.15.34-5.09 0 0 .54-.27 1.27-.63l.04-.02c1.44-.71 3.57-1.78 3.8-1.91.06-.03.2.05.4.2.88.74 2.77 3.11 2.77 3.11Z" style="fill:#ee9c79"></path><path d="m9.86 46.64-.89.03-7.39.25-.24 2.82c-.36.1-.65.19-.87.26-.04-.35.11-3.15.34-5.09 0 0 .54-.27 1.27-.63l.04-.02 4.21-1.7 1.81-.74 1.72 4.81Z" style="fill:#de9070"></path><path d="M32.12 43.46c.91-1.64 5.2-4.69 6.92-5.05.6-.03.09 1.95-1.92 2.92 1.65-.24 8.95-.33 8.88.84.04.93-.35 1.03-.79 2.23s-.45 2.52-1.62 2.75c-2.74 1.01-2.12-.56-6.34.29-1.32.73-1.97 1.82-3.09 2.14l-2.04-6.11Z" style="fill:#ee9c79"></path><path d="M32.22 43.62c.68-.99 4.77-4.39 6.48-4.95.34-1.42-1.88-9.83-3.46-10.45-1.65-1.02-3.87-1.74-4.8-1.86-.26-.15-1.26-.46-2.63-.81-.05-.01-.1-.03-.15-.04-2.83-.72-7.13-1.59-9.85-1.57-.31 0-.59.01-.87.04-.27.03-.6.06-.98.11-3.47.43-10.83 1.63-11.8 3.04C2.6 29.68-1.34 41.9.48 49.99h30.74s2.4 0 3.15-.62c-.11-2.87-1.58-5.63-2.16-5.76h.01Z" style="fill:#ff4646"></path><path d="M28.28 25.74c0 .21-.03.42-.06.64-.05.41-.15.82-.33 1.21-.14.3-.29.58-.45.84-3.59 5.94-12.57 3.42-11.67-4.43.4-.06.74-.1 1.04-.13.28-.03.59-.05.91-.05 2.87-.03 7.41 1 10.4 1.86.05.02.11.03.16.05Z" style="fill:#fff"></path><path d="M26.88 26.79c.09 2.32-8.62 5.54-9.45-.98-.07-.52-.08-1.1-.04-1.75.55-.74 1.03-3.44 1.38-5.87 0-.09.03-.15.06-.21.79-1.45 7.9 4.58 8.04 8.81Z" style="fill:#ee9c79"></path><path d="M18.8 18.14s8.1 8.29 8.07 8.57c-5.68.13-7.85-2.44-8.07-8.57Z" style="fill:#de9070"></path><path d="m20.19 19.62-.5.95s-.59 3.83-2.23 5.16c-.07-.52-.08-1.1-.04-1.75.55-.74 1.03-3.42 1.37-5.85l1.27-.17.13 1.65Z" style="fill:#de9070"></path><path d="M28.28 25.74s-.04 1.44-.48 2.03l-1.25-.1s.41-.65.31-1.08.61-1.64.61-1.64l.81.8Z" style="fill:#dedede"></path><path d="M32.19 14.16c.08 2.65.51 7.98-4.42 11.93-3.24 2.6-8.64-3.56-9.38-9.83C17.65 10 20.35 6 24.08 5.22c10.03-2.06 8.26 3.52 8.1 8.94Z" style="fill:#ee9c79"></path><path d="M24.25 8.77c-.98 1.29-.46 2.08-3.39 2.63-.08 1.38-.02 2.96-.43 3.73-.04.08-.06.15-.11.21-.04.04-.09.14-.13.17-.24.17-.39.17-.83-.12-1.68-1.17-3.31-1.91-3.76-3.43-.46-1.52-.95-4.75.06-6.15.19-.26.43-.46.75-.57.13-.05.27-.08.43-.09.06-.12.11-.22.17-.33.03-.07.06-.13.1-.2.12-.23.26-.45.4-.66 2.4-3.54 6.41-3.55 5.47-2.02 3.14-3.08 13.13-.34 12.84 4.73 5.23 8.04-8.46 5.93-11.57 2.1Z" style="fill:#613c24"></path><path d="M16.81 5.32s-.79-.18-.96-.13c-.17.05.07-.71.29-.69.22.02.79.2.99.41.02-.53-.21-1.49.21-1.63.41-.14.13 1.02.13 1.02l-.66 1.02Z" style="fill:#613c24"></path><path d="M20.86 11.4c-.08 1.38-.08 3.05-.47 3.82-.04.08-.08.15-.12.21-.04.05-.08.09-.12.12-.23.16-.54.13-.96-.16-1.61-1.17-3.17-1.91-3.61-3.43-.44-1.52-.91-4.75.06-6.15.7 1.51 2.11 3.06 3.25 3 1.15-.06 1.97 2.59 1.97 2.59Z" style="fill:#553520"></path><path d="M7.11 46.81s1.14-4.67.94-7.05c-.2-2.38.94 5.71.76 6.15-.18.44 22.22-2.98 23.43-2.29-1.68.52-22.45 2.99-25.12 3.19ZM33.04 42.8c.16-.55.87-3.76-.64-5.64.29 1.39.64 5.64.64 5.64Z" style="fill:#b63c3c"></path><path d="M18.82 12.87c.17 1.33.13 2.61-.75 2.84-.88.23-2.14-.7-2.44-2.01-.3-1.31.18-2.53 1.06-2.79 1.32-.39 1.95.53 2.14 1.95Z" style="fill:#ee9c79"></path><path d="M16.35 12.54c.33-.44 1.85-1.15 1.57 1.43 0 0-.38-.73-.62-.51" style="fill:none;stroke:#db8f6f;stroke-linecap:round;stroke-miterlimit:10;stroke-width:.5px"></path><path d="m65.65 35.11-.8-1-2.64 2.44 2.25 2.86.93-.87-1.45-1.85 1.71-1.58Z" style="fill:#dbdada"></path><path style="fill:#e6e4e4" d="m67.12 39.86-.02.12-.34 1.68-1.2-.29.09-.42 1.47-1.09z"></path><path style="fill:#dbdada" d="m68.64 32.58-1.52 7.28-1.47 1.09.01-.07.01-.01 1.77-8.58 1.2.29z"></path><path style="fill:#e6e4e4" d="m72 37.39-2.65 2.44-.66-.84-.13-.18.04-.04 2.83-2.08.31.39.26.31z"></path><path style="fill:#dbdada" d="m68.6 38.77 1.67-1.53-1.46-1.85.93-.86 1.69 2.16-2.83 2.08z"></path></svg>